<mxfile host="app.diagrams.net" modified="2024-06-11T13:59:19.727Z" agent="Mozilla/5.0 (Windows NT 10.0; Win64; x64) AppleWebKit/537.36 (KHTML, like Gecko) Chrome/125.0.0.0 Safari/537.36" version="23.1.5" etag="jqVCvjgVLPlCJS7bd5rV" type="github">
  <diagram name="페이지-1" id="0u5pboMvKcXMLdfcbKcp">
    <mxGraphModel>
      <root>
        <mxCell id="0" />
        <mxCell id="1" parent="0" />
      </root>
    </mxGraphModel>
  </diagram>
</mxfile>
